<svg width="17" height="20" viewBox="0 0 17 20" fill="none" xmlns="http://www.w3.org/2000/svg">
<path d="M8.24895 5.22942C8.24854 5.21587 8.24803 5.20232 8.24688 5.18868C8.24574 5.17499 8.24405 5.16149 8.24222 5.14803C8.24121 5.14107 8.24093 5.13416 8.23979 5.12716L7.48979 0.627158C7.47365 0.529956 7.43852 0.436887 7.3864 0.353269C7.33427 0.269651 7.26619 0.197122 7.18602 0.139828C7.10586 0.0825339 7.0152 0.0415966 6.91921 0.0193559C6.82322 -0.00288486 6.72379 -0.00599326 6.6266 0.0102083C6.5294 0.0264098 6.43636 0.0616038 6.35277 0.113779C6.26919 0.165954 6.1967 0.234088 6.13946 0.314288C6.08222 0.394487 6.04134 0.48518 6.01916 0.581184C5.99699 0.677187 5.99394 0.77662 6.01021 0.873801L6.61464 4.50048H4.875V0.75048C4.875 0.551567 4.79598 0.360802 4.65533 0.220149C4.51468 0.0794972 4.32391 0.000479561 4.125 0.000479561C3.92609 0.000479561 3.73532 0.0794972 3.59467 0.220149C3.45402 0.360802 3.375 0.551567 3.375 0.75048V4.50048H1.63536L2.23979 0.873801C2.25606 0.77662 2.25301 0.677187 2.23083 0.581184C2.20866 0.48518 2.16778 0.394487 2.11053 0.314288C2.05329 0.234088 1.98081 0.165954 1.89722 0.113779C1.81364 0.0616038 1.72059 0.0264098 1.6234 0.0102083C1.52621 -0.00599326 1.42678 -0.00288486 1.33079 0.0193559C1.2348 0.0415966 1.14413 0.0825339 1.06397 0.139828C0.98381 0.197122 0.915723 0.269651 0.863602 0.353269C0.81148 0.436887 0.776347 0.529956 0.760208 0.627158L0.0102085 5.12716C0.0090638 5.13416 0.00878922 5.14107 0.00778234 5.14803C0.0059514 5.16149 0.00425712 5.17499 0.00311244 5.18868C0.00196869 5.20232 0.00146437 5.21587 0.00105 5.22942C0.000869995 5.23647 0 5.24338 0 5.25048C0 5.25716 0.000457603 5.26371 0.00050354 5.27035C0.000641353 5.27497 0.000641359 5.27955 0.000870109 5.28413C0.00992686 6.24168 0.351396 7.16635 0.966872 7.89996C1.58235 8.63357 2.43359 9.13055 3.375 9.3059V18.7505C3.375 18.9494 3.45402 19.1402 3.59467 19.2808C3.73532 19.4215 3.92609 19.5005 4.125 19.5005C4.32391 19.5005 4.51468 19.4215 4.65533 19.2808C4.79598 19.1402 4.875 18.9494 4.875 18.7505V9.3059C5.81641 9.13055 6.66765 8.63357 7.28313 7.89996C7.8986 7.16635 8.24007 6.24168 8.24913 5.28413C8.24936 5.27955 8.24936 5.27497 8.2495 5.27034C8.24954 5.26371 8.25 5.25716 8.25 5.25048C8.25 5.24338 8.24913 5.23647 8.24895 5.22942Z" fill="black"/>
<path d="M16.1243 0.737274C16.1241 0.721806 16.1232 0.706329 16.122 0.690811C16.1212 0.680283 16.1202 0.669846 16.1189 0.659454C16.1173 0.6465 16.1153 0.633545 16.113 0.62059C16.1107 0.607544 16.1082 0.594635 16.1053 0.581863C16.1029 0.571701 16.1002 0.561585 16.0974 0.551467C16.0933 0.536407 16.0888 0.521576 16.0837 0.506928C16.0823 0.502716 16.0814 0.498459 16.0799 0.494247C16.0782 0.489715 16.076 0.485504 16.0743 0.481018C16.0686 0.466324 16.0625 0.451889 16.056 0.437714C16.0518 0.428464 16.0474 0.419339 16.0428 0.410339C16.0366 0.398255 16.0301 0.386368 16.0233 0.374679C16.0172 0.364197 16.0111 0.353897 16.0046 0.34378C15.9984 0.334259 15.9919 0.325013 15.9853 0.315765C15.9774 0.304596 15.9694 0.293655 15.9608 0.283035C15.9546 0.275208 15.9481 0.267654 15.9416 0.260101C15.9322 0.249298 15.9227 0.238632 15.9128 0.228424C15.9058 0.221283 15.8986 0.214416 15.8914 0.20755C15.8814 0.198029 15.8713 0.18869 15.8608 0.179764C15.8524 0.172577 15.8437 0.165802 15.8349 0.158981C15.8251 0.151383 15.8153 0.143829 15.8051 0.136688C15.7947 0.12941 15.784 0.122589 15.7733 0.11586C15.7641 0.110141 15.755 0.10437 15.7456 0.0990599C15.7334 0.0921018 15.7209 0.0856931 15.7083 0.0794222C15.6996 0.075119 15.691 0.0708158 15.6822 0.0668333C15.6689 0.0608821 15.6554 0.0554812 15.6417 0.0502621C15.6327 0.046829 15.6237 0.0433959 15.6144 0.0402834C15.6013 0.0358424 15.588 0.0319518 15.5746 0.028244C15.5639 0.0252684 15.5532 0.0224764 15.5424 0.0199583C15.5305 0.0172574 15.5185 0.014923 15.5064 0.0127714C15.4932 0.0103911 15.4801 0.00837743 15.4667 0.00672931C15.4565 0.00549274 15.4463 0.0044858 15.4359 0.0036158C15.4206 0.00238017 15.4052 0.00160219 15.3896 0.00128156C15.3847 0.00119062 15.3799 0.000549317 15.375 0.000549317C15.3705 0.000549317 15.366 0.00114467 15.3615 0.00123561C15.3462 0.00151029 15.3308 0.00233435 15.3154 0.00357092C15.3048 0.00439498 15.2943 0.00535208 15.2839 0.00663739C15.2709 0.00823958 15.258 0.0102542 15.245 0.0125436C15.232 0.0148321 15.2191 0.0173502 15.2063 0.0203249C15.1961 0.0226593 15.186 0.0253143 15.1759 0.0281062C15.1609 0.0322255 15.146 0.0367575 15.1314 0.0418387C15.1272 0.0432581 15.1229 0.0441731 15.1187 0.0456825C15.1094 0.0490697 15.1003 0.053098 15.0911 0.0565311C15.0877 0.0579496 15.0841 0.0591863 15.0806 0.0606506C13.1484 0.786802 11.6011 3.15715 10.4815 7.10861C9.97364 8.93199 9.60517 10.7914 9.3793 12.6706C9.36809 12.7753 9.37903 12.8811 9.41139 12.9812C9.44376 13.0813 9.49683 13.1735 9.56716 13.2518C9.63749 13.3301 9.72351 13.3927 9.81961 13.4355C9.91572 13.4784 10.0198 13.5005 10.125 13.5005H14.625V18.7505C14.625 18.9495 14.704 19.1402 14.8447 19.2809C14.9853 19.4215 15.1761 19.5005 15.375 19.5005C15.5739 19.5005 15.7647 19.4215 15.9053 19.2809C16.046 19.1402 16.125 18.9495 16.125 18.7505V0.750549C16.125 0.746063 16.1244 0.74176 16.1243 0.737274Z" fill="black"/>
</svg>
