<svg width="16" height="8" viewBox="0 0 16 8" fill="none" xmlns="http://www.w3.org/2000/svg">
<path d="M14.3698 3.45348C14.755 3.14724 15.2345 2.98561 15.777 3.13024L15.6647 3.55309L15.5514 3.97497C15.3304 3.91616 15.1302 3.96596 14.9137 4.13805C14.6819 4.32244 14.4534 4.63387 14.2379 5.0443C13.8085 5.86243 13.5039 6.92561 13.2985 7.68884L12.4547 7.46227C12.6585 6.70508 12.9842 5.55294 13.4645 4.63805C13.7037 4.18228 13.9998 3.74762 14.3698 3.45348Z" fill="white"/>
<path d="M13.2893 -0.000488281C13.2893 0.679638 13.5686 1.46708 14.0344 2.08252C14.5026 2.70099 15.1017 3.07649 15.7063 3.07666V3.95068C14.7302 3.95052 13.9019 3.35544 13.3381 2.61084C12.7719 1.86291 12.4143 0.89332 12.4143 -0.000488281H13.2893Z" fill="white"/>
<path d="M15.7166 3.11523V3.99023H14.8534V3.11523H15.7166Z" fill="white"/>
<path d="M15.7578 3.25146V4.12646H0V3.25146H15.7578Z" fill="white"/>
</svg>
