<svg width="16" height="14" viewBox="0 0 16 14" fill="none" xmlns="http://www.w3.org/2000/svg">
<path d="M7.81776 1.18667C10.2835 -0.974688 13.8129 0.0109589 15.1205 2.57632C15.8572 4.02184 15.8548 5.87171 14.7943 7.80288C13.746 9.71161 11.6726 11.6982 8.2533 13.588L7.81776 13.8293L7.38319 13.588C3.96393 11.6982 1.89041 9.71164 0.84217 7.80288C-0.218303 5.87159 -0.219817 4.02186 0.516974 2.57632C1.82446 0.0112169 5.35226 -0.974081 7.81776 1.18667ZM13.517 3.3937C12.6222 1.6382 10.082 1.07747 8.52381 3.048L7.81776 3.94058L7.11268 3.048C5.55474 1.07759 3.01533 1.63814 2.12049 3.3937C1.69073 4.2369 1.60518 5.45272 2.41932 6.9357C3.20822 8.37242 4.84831 10.0544 7.81776 11.7648C10.7878 10.0543 12.4281 8.37254 13.2172 6.9357C14.0314 5.45281 13.9466 4.2369 13.517 3.3937Z" fill="white"/>
</svg>
