<svg width="26" height="23" viewBox="0 0 26 23" fill="none" xmlns="http://www.w3.org/2000/svg">
<path d="M11.8633 5.0957C11.8602 5.09165 11.8546 5.08435 11.8467 5.07422C11.8309 5.05395 11.8055 5.02234 11.7715 4.98047C11.7032 4.89638 11.5999 4.77221 11.4648 4.62207C11.1935 4.32044 10.8008 3.9186 10.3193 3.51953C9.32808 2.69803 8.09524 2 6.83301 2C4.1547 2.00017 2 4.14765 2 6.77539C2.00005 7.91798 2.22328 9.91115 3.63281 12.3564C5.0456 14.8073 7.68146 17.7666 12.5908 20.7852C12.6138 20.7987 12.6403 20.8057 12.667 20.8057C12.6932 20.8056 12.7186 20.7983 12.7412 20.7852C17.6511 17.7665 20.2873 14.8075 21.7002 12.3564C23.1097 9.91115 23.333 7.91798 23.333 6.77539C23.333 4.14754 21.1785 2 18.5 2C17.2377 2 16.005 2.69796 15.0137 3.51953C14.5322 3.9186 14.1395 4.32044 13.8682 4.62207C13.7332 4.77213 13.6298 4.89641 13.5615 4.98047C13.5275 5.02235 13.502 5.05399 13.4863 5.07422C13.4785 5.08434 13.4728 5.09166 13.4697 5.0957C13.4689 5.09685 13.4673 5.09704 13.4668 5.09766C13.2781 5.35029 12.9823 5.4999 12.667 5.5C12.3515 5.5 12.054 5.35135 11.8652 5.09863C11.8647 5.09799 11.8642 5.09693 11.8633 5.0957ZM25.333 6.77539C25.333 8.20773 25.0463 10.5577 23.4336 13.3555C21.824 16.1477 18.9255 19.3319 13.7881 22.4902L13.7842 22.4922L13.6553 22.5645C13.3505 22.7224 13.0117 22.8056 12.667 22.8057C12.3221 22.8057 11.9827 22.7225 11.6777 22.5645L11.5498 22.4922L11.5459 22.4902L12.0693 21.6387V21.6377L11.5459 22.4902C6.40851 19.3319 3.51 16.1477 1.90039 13.3555C0.287691 10.5577 5.22805e-05 8.20773 0 6.77539C0 3.02402 3.06928 0.000174662 6.83301 0C8.79172 0 10.4757 1.05214 11.5957 1.98047C12.017 2.32964 12.3776 2.67791 12.666 2.97852C12.9545 2.6778 13.3158 2.32985 13.7373 1.98047C14.8573 1.05213 16.5413 6.8277e-07 18.5 0C22.2639 0 25.333 3.02391 25.333 6.77539Z" fill="black"/>
</svg>
