<svg width="25" height="25" viewBox="0 0 25 25" fill="none" xmlns="http://www.w3.org/2000/svg">
<path d="M19.833 10.917C19.833 8.55215 18.8939 6.28353 17.2217 4.61133C15.5496 2.93931 13.2816 2.00009 10.917 2C8.55215 2 6.28353 2.93913 4.61133 4.61133C2.93913 6.28353 2 8.55215 2 10.917C2.00009 13.2816 2.93931 15.5496 4.61133 17.2217C6.28353 18.8939 8.55215 19.833 10.917 19.833C13.2817 19.8329 15.5496 18.8938 17.2217 17.2217C17.2234 17.2199 17.2248 17.2176 17.2266 17.2158C17.228 17.2144 17.229 17.2124 17.2305 17.2109C18.8965 15.5398 19.8329 13.2771 19.833 10.917ZM21.833 10.917C21.8329 13.475 20.9337 15.9391 19.3125 17.8906L23.874 22.46C24.2642 22.8508 24.2638 23.4838 23.873 23.874C23.4822 24.2642 22.8492 24.2639 22.459 23.873L17.8994 19.3047C15.9464 20.9306 13.479 21.8329 10.917 21.833C8.02171 21.833 5.24454 20.683 3.19727 18.6357C1.15017 16.5886 8.63711e-05 13.8121 0 10.917C0 8.02171 1.14999 5.24454 3.19727 3.19727C5.24454 1.14999 8.02171 0 10.917 0C13.8121 8.6372e-05 16.5886 1.15017 18.6357 3.19727C20.683 5.24454 21.833 8.02171 21.833 10.917Z" fill="black"/>
</svg>
